<svg height="750" width="275" xmlns="http://www.w3.org/2000/svg"><g transform="translate(0 -302.36218)"><rect height="750" rx="29.999998" ry="30" width="275" y="302.36218"/><path d="m486.89352 397.78333c0 71.41015-57.88937 129.29953-129.29953 129.29953-71.41015 0-129.29953-57.88938-129.29953-129.29953 0-71.41016 57.88938-129.29953 129.29953-129.29953 71.41016 0 129.29953 57.88937 129.29953 129.29953z" fill="#ff0" transform="matrix(.67633656 0 0 .67633656 -104.40389 408.87678)"/><path d="m486.89352 397.78333c0 71.41015-57.88937 129.29953-129.29953 129.29953-71.41015 0-129.29953-57.88938-129.29953-129.29953 0-71.41016 57.88938-129.29953 129.29953-129.29953 71.41016 0 129.29953 57.88937 129.29953 129.29953z" fill="#f00" transform="matrix(.67672326 0 0 .67672326 -104.49217 177.67295)"/><path d="m486.89352 397.78333c0 71.41015-57.88937 129.29953-129.29953 129.29953-71.41015 0-129.29953-57.88938-129.29953-129.29953 0-71.41016 57.88938-129.29953 129.29953-129.29953 71.41016 0 129.29953 57.88937 129.29953 129.29953z" fill="#0f0" transform="matrix(.67672326 0 0 .67672326 -104.49217 639.67295)"/></g></svg>