<svg width="275" height="750" xmlns="http://www.w3.org/2000/svg" xmlns:undefined="http://www.inkscape.org/namespaces/inkscape" xmlns:undefined="http://sodipodi.sourceforge.net/DTD/sodipodi-0.dtd" version="1.1">

 <metadata id="metadata7">image/svg+xml</metadata>
 <g>
  <title>Layer 1</title>
  <g id="layer1"  >
   <g id="g3081">
    <rect fill="#000000" id="rect3052" width="275" height="750" y="0" ry="30" rx="30"/>
    <path fill="#ffff00" d="m224.89998,375.54998c0,48.29729 -39.1527,87.45 -87.45,87.45c-48.29729,0 -87.45,-39.1527 -87.45,-87.45c0,-48.2973 39.1527,-87.45 87.45,-87.45c48.2973,0 87.45,39.1527 87.45,87.45z"     id="path3060" />
    <path fill="#ff0000"  id="path3077"     d="m224.99999,144.49999c0,48.32491 -39.17508,87.5 -87.5,87.5c-48.32491,0 -87.5,-39.17509 -87.5,-87.5c0,-48.32491 39.17509,-87.5 87.5,-87.5c48.32491,0 87.5,39.17508 87.5,87.5z"/>
    <path fill="#00ff00" d="m224.99999,606.50002c0,48.32491 -39.17508,87.5 -87.5,87.5c-48.32491,0 -87.5,-39.17509 -87.5,-87.5c0,-48.32491 39.17509,-87.5 87.5,-87.5c48.32491,0 87.5,39.17508 87.5,87.5z"     id="path3079" />
   </g>
  </g>
  <path transform="rotate(-90 134.983 144.543)" fill-opacity="0" stroke-width="5" stroke="#000" id="svg_2" d="m64.98334,144.37483l70,-69.76491l70,69.76491l-35,0l0,70.10061l-70,0l0,-70.10061l-35,0z" fill="#191919"/>
  <path transform="rotate(-90 134.983 377.094)" fill-opacity="0" stroke-width="5" stroke="#000" id="svg_4" d="m64.98334,376.9259l70,-69.76492l70.00001,69.76492l-35.00001,0l0,70.10061l-70,0l0,-70.10061l-35,0z" fill="#191919"/>
  <path transform="rotate(-90 134.983 607.096)" fill-opacity="0" stroke-width="5" stroke="#000" id="svg_5" d="m64.98334,606.92813l70,-69.76492l70.00001,69.76492l-35.00001,0l0,70.10061l-70,0l0,-70.10061l-35,0z" fill="#191919"/>
 </g>
</svg>