<?xml version="1.0"?>
<svg width="275" height="750" xmlns="http://www.w3.org/2000/svg" xmlns:svg="http://www.w3.org/2000/svg">
 <g class="layer">
  <title>Layer 1</title>
  <g id="svg_1" transform="translate(0 -302.36218)">
   <rect height="750" id="svg_2" rx="30" ry="30" width="275" y="302.36"/>
   <path d="m486.89,397.78c0,71.41 -57.89,129.3 -129.3,129.3c-71.41,0 -129.3,-57.89 -129.3,-129.3c0,-71.41 57.89,-129.3 129.3,-129.3c71.41,0 129.3,57.89 129.3,129.3z" fill="#ff0" id="svg_3" transform="matrix(.67633656 0 0 .67633656 -104.40389 408.87678)"/>
   <path d="m486.89,397.78c0,71.41 -57.89,129.3 -129.3,129.3c-71.41,0 -129.3,-57.89 -129.3,-129.3c0,-71.41 57.89,-129.3 129.3,-129.3c71.41,0 129.3,57.89 129.3,129.3z" fill="#f00" id="svg_4" transform="matrix(.67672326 0 0 .67672326 -104.49217 177.67295)"/>
   <path d="m486.89,397.78c0,71.41 -57.89,129.3 -129.3,129.3c-71.41,0 -129.3,-57.89 -129.3,-129.3c0,-71.41 57.89,-129.3 129.3,-129.3c71.41,0 129.3,57.89 129.3,129.3z" fill="#0f0" id="svg_5" transform="matrix(.67672326 0 0 .67672326 -104.49217 639.67295)"/>
  </g>
  <path d="m73.6,376.21l60.5,-60.3l60.5,60.3l-30.25,0l0,60.59l-60.5,0l0,-60.59z" fill="#ff0000" fill-opacity="0.07" id="svg_7" stroke="#000000" stroke-width="5" transform="rotate(-90 134.1 376.355)"/>
  <path d="m71,145.86l60.5,-60.3l60.5,60.3l-30.25,0l0,60.59l-60.5,0l0,-60.59z" fill="#ff0000" fill-opacity="0.07" id="svg_9" stroke="#000000" stroke-width="5" transform="rotate(-90 131.5 146)"/>
  <path d="m74,607.86l60.5,-60.3l60.5,60.3l-30.25,0l0,60.59l-60.5,0l0,-60.59z" fill="#ff0000" fill-opacity="0.07" id="svg_10" stroke="#000000" stroke-width="5" transform="rotate(-90 134.5 608)"/>
 </g>
</svg>